# xmcd
#
# Track frame offsets:
#	150
#	19425
#	44210
#	66170
#	89035
#	116340
#	144122
#	165450
#	187515
#	208812
#	234750
#	252312
#
# Disc length: 3626 seconds
#
# Revision: 1
# Processed by: cddbd v1.5.1PL0 Copyright (c) Steve Scherf et al.
# Submitted via: CDex 1.50Beta5
#
DISCID=a10e280c
DTITLE=CLOUD - twelve message
DYEAR=2001
DGENRE=Rock
TTITLE0=車窓
TTITLE1=Another mile(new version)
TTITLE2=ZERO
TTITLE3=3 AM
TTITLE4=blue is the colour(new version)
TTITLE5=手紙
TTITLE6=walk,a
TTITLE7=brand new my love
TTITLE8=裏返った帽子(new version)
TTITLE9=イエティ
TTITLE10=一等星
TTITLE11=プラトニックホーム(album mix)
EXTD=
EXTT0=
EXTT1=
EXTT2=
EXTT3=
EXTT4=
EXTT5=
EXTT6=
EXTT7=
EXTT8=
EXTT9=
EXTT10=
EXTT11=
PLAYORDER=
